<?xml version="1.0" encoding="UTF-8" standalone="no"?>
<!-- Created with Inkscape (http://www.inkscape.org/) -->

<svg
   width="119.238mm"
   height="11.946mm"
   viewBox="0 0 119.238 11.946"
   version="1.1"
   id="svg5"
   inkscape:version="1.1.2 (0a00cf5339, 2022-02-04)"
   sodipodi:docname="title-border.svg"
   xmlns:inkscape="http://www.inkscape.org/namespaces/inkscape"
   xmlns:sodipodi="http://sodipodi.sourceforge.net/DTD/sodipodi-0.dtd"
   xmlns="http://www.w3.org/2000/svg"
   xmlns:svg="http://www.w3.org/2000/svg">
  <sodipodi:namedview
     id="namedview7"
     pagecolor="#ffffff"
     bordercolor="#666666"
     borderopacity="1.0"
     inkscape:pageshadow="2"
     inkscape:pageopacity="0.0"
     inkscape:pagecheckerboard="0"
     inkscape:document-units="mm"
     showgrid="false"
     width="119.239mm"
     inkscape:zoom="0.72604517"
     inkscape:cx="338.13323"
     inkscape:cy="336.75591"
     inkscape:window-width="1920"
     inkscape:window-height="990"
     inkscape:window-x="0"
     inkscape:window-y="28"
     inkscape:window-maximized="1"
     inkscape:current-layer="layer1" />
  <defs
     id="defs2" />
  <g
     inkscape:label="Vrstva 1"
     inkscape:groupmode="layer"
     id="layer1">
    <path
       style="fill:#000000;stroke-width:0.211055"
       d="m 59.015543,11.59473 c -0.19213,-0.21228 -0.34931,-0.489658 -0.34931,-0.616395 0,-0.126737 -0.27836,-0.29157 -0.61858,-0.366295 -0.340215,-0.07472 -0.72175,-0.260182 -0.847852,-0.412128 -0.236037,-0.2844056 -0.09503,-0.9629326 0.20011,-0.9629326 0.44882,0 0.361532,-0.651423 -0.121177,-0.904341 l -0.527947,-0.276621 0.634519,-0.875934 c 0.348987,-0.481764 0.819837,-0.975117 1.046347,-1.09634 0.22651,-0.121223 0.52179,-0.553546 0.65617,-0.960718 0.33176,-1.005297 0.92113,-0.984591 1.45573,0.05114 0.22469,0.435301 0.79647,1.166887 1.27062,1.625746 0.99668,0.964534 1.0699,1.313229 0.33446,1.592844 -0.62498,0.237616 -0.63268,0.284687 -0.17372,1.061634 0.29318,0.496323 0.30685,0.6558216 0.0797,0.9295486 -0.15082,0.181733 -0.41626,0.330423 -0.58987,0.330423 -0.17359,0 -0.64014,0.284924 -1.03676,0.633165 -0.84411,0.741137 -0.94884,0.759466 -1.41242,0.2472 z M 35.239225,11.55116 c 0,-0.120165 0.150648,-0.4484 0.334774,-0.729412 0.184124,-0.281012 0.275018,-0.607614 0.201988,-0.725783 -0.571118,-0.9240886 -9.161804,-1.9283926 -12.716634,-1.4866506 -2.058417,0.255789 -4.0838,1.076771 -5.135171,2.0815216 -0.377941,0.361182 -0.758215,0.656694 -0.845054,0.656694 -0.08684,0 -0.452649,-0.335716 -0.812914,-0.746036 -0.866275,-0.9866376 -0.897967,-2.0986826 -0.08727,-3.0621476 0.537557,-0.638854 0.626885,-0.668643 1.679348,-0.560018 0.967028,0.09981 1.128294,0.0621 1.240027,-0.289948 0.331934,-1.045833 1.19845,-1.313649 2.000274,-0.618227 0.623807,0.541026 0.723813,0.53178 1.14139,-0.105528 0.426451,-0.65085 0.896237,-0.669717 1.543147,-0.06197 0.511674,0.480695 0.521935,0.480014 1.972686,-0.130836 0.205643,-0.08659 0.635444,0.103043 1.137057,0.501675 0.648508,0.515373 1.007422,0.640883 1.83269,0.640883 0.564439,0 1.026251,-0.08451 1.026251,-0.187812 0,-0.425783 -5.49099,-2.474988 -9.180856,-3.426242 -2.329525,-0.600556 -4.13009,-0.491699 -4.742384,0.28671 -0.241699,0.307273 -0.643367,0.623398 -0.892595,0.7025 -0.249228,0.0791 -0.644557,0.322153 -0.878508,0.540113 -1.156637,1.077576 -1.620267,-0.04081 -0.55345,-1.335047 0.466903,-0.566436 0.566382,-0.815598 0.373279,-0.934943 -0.299321,-0.184991 -5.0068112,-0.16228 -6.6027542,0.03185 -1.785831,0.217233 -4.059782,0.96494 -4.562708,1.500281 -0.257994,0.274624 -0.422619,0.545777 -0.365833,0.602563 0.05679,0.05679 0.636282,-0.0086 1.287768,-0.145209 1.900918,-0.398724 2.972435,0.411386 2.972435,2.24728 0,1.701785 -1.362574,3.072724 -3.053977,3.072724 -0.976561,0 -2.89249498,-1.011658 -3.25930198,-1.720987 -0.391998,-0.758043 -0.390138,-3.190509 0.003,-3.950797 0.413185,-0.799016 1.66755898,-1.586891 3.41092198,-2.142408 2.108426,-0.671842 8.9411802,-0.840821 12.8633582,-0.31812 2.717864,0.362204 8.20199,1.644944 8.660868,2.025781 0.132027,0.109573 0.773642,0.382808 1.425813,0.607188 0.65217,0.22438 1.781525,0.736331 2.509678,1.137667 1.889385,1.041375 2.192546,1.103946 2.519744,0.520063 0.149487,-0.266759 0.273991,-1.054866 0.276673,-1.751347 0.0047,-1.225548 0.02371,-1.268496 0.589744,-1.333545 0.328538,-0.03776 0.894454,0.124119 1.291238,0.369346 0.407859,0.252071 1.065358,0.436561 1.555855,0.436561 1.063723,0 1.319095,0.46856 0.544333,0.998745 -1.273779,0.87167 -1.602573,1.319675 -1.466786,1.998603 0.160458,0.802302 0.96489,1.51413 2.226115,1.969851 1.257985,0.45455 7.426516,1.5629686 8.737407,1.5700186 2.196378,0.01181 6.27518,-0.6409586 8.075535,-1.2924066 1.746767,-0.632057 2.378995,-0.668692 1.760356,-0.102007 -0.167211,0.153168 -1.265121,0.670623 -2.439804,1.1498986 -3.624705,1.478899 -6.927857,1.820368 -11.582735,1.197386 -3.051081,-0.40834 -3.675609,-0.393137 -4.432137,0.107894 -0.676232,0.447854 -1.582906,0.564491 -1.582906,0.20363 z m 34.648538,-0.51832 c -1.08316,-0.294815 -2.50778,-0.728439 -3.16582,-0.963608 -0.65805,-0.2351696 -1.49482,-0.5202576 -1.85952,-0.6335296 -0.70709,-0.219616 -1.2806,-0.75252 -1.05388,-0.97925 0.0754,-0.07544 1.15745,0.207151 2.40444,0.627978 2.14583,0.724157 5.10444,1.2108166 6.70787,1.1033756 2.43853,-0.163397 6.05554,-0.6226886 6.83564,-0.8679966 0.51402,-0.161636 1.13135,-0.29396 1.37185,-0.294051 0.54492,-2.08e-4 2.88792,-1.094854 3.20326,-1.49656 0.6982,-0.889423 0.4614,-2.055016 -0.53733,-2.644985 -1.12425,-0.664116 -0.65473,-1.649312 0.76066,-1.596101 0.41469,0.01559 0.95385,-0.111647 1.19813,-0.282748 1.03898,-0.727738 1.29987,-0.414925 1.46987,1.762454 0.0483,0.618089 0.22964,1.265691 0.40306,1.439116 0.27972,0.279721 0.40814,0.252123 1.1375,-0.24446 2.84625,-1.937848 7.64333,-3.611423 13.063317,-4.557449 3.5712,-0.62332902 9.94207,-0.68980202 12.19288,-0.127219 3.41513,0.8536 5.22085,2.703317 5.21831,5.345471 -0.002,1.840375 -1.77505,3.20924 -3.84047,2.96462 -1.80995,-0.214362 -2.91248,-1.389874 -2.91248,-3.105258 0,-0.714609 0.13208,-1.007884 0.71758,-1.593395 0.75773,-0.757727 1.15118,-0.836973 2.54783,-0.513159 0.93997,0.217929 1.01527,0.19646 0.8472,-0.241539 -0.19567,-0.50991 -1.86004,-1.188689 -3.83519,-1.564096 -2.13664,-0.406103 -6.20413,-0.465191 -7.11887,-0.103415 l -0.61536,0.24337 0.80194,0.821264 c 0.51237,0.524717 0.75601,0.940954 0.67474,1.152736 -0.15956,0.415811 -0.85056,0.430766 -1.18675,0.02569 -0.13958,-0.168183 -0.57082,-0.410418 -0.9583,-0.538301 -0.38749,-0.127882 -0.86553,-0.478242 -1.06231,-0.778578 -0.35511,-0.541966 -0.37385,-0.545206 -2.49718,-0.431796 -1.742737,0.09308 -2.712227,0.293148 -5.229227,1.07912 -1.69941,0.530668 -3.83633,1.318718 -4.74872,1.751222 -1.61277,0.764517 -1.63873,0.788576 -0.93435,0.865715 1.05969,0.116053 2.01428,-0.114467 2.44504,-0.590448 0.44716,-0.494115 1.41863,-0.54914 1.79022,-0.1014 0.35649,0.429544 0.70526,0.397838 1.16079,-0.105527 0.48649,-0.537565 1.16816,-0.537565 1.85155,0 0.66852,0.525858 0.83052,0.527196 1.15381,0.0095 0.21703,-0.347514 0.35359,-0.379143 0.8659,-0.20055 0.33452,0.116618 0.71793,0.452813 0.852017,0.7471 0.21914,0.480974 0.32683,0.521037 1.06522,0.396287 2.07074,-0.349849 3.3744,2.043333 2.00175,3.6746536 -0.691,0.821203 -1.11578,0.818412 -1.894,-0.01244 -1.434917,-1.5319306 -4.968597,-2.4513436 -8.395947,-2.1845016 -5.43095,0.422837 -9.36374,1.267742 -9.14279,1.9641986 0.40703,1.283041 0.40707,1.304213 0.003,1.304213 -0.21876,0 -0.74716,-0.237437 -1.17423,-0.527637 -0.93517,-0.635469 -1.37232,-0.645912 -3.96469,-0.09471 -1.10276,0.234476 -3.04973,0.472738 -4.32661,0.529472 -2.02949,0.09017 -2.56938,0.03571 -4.29096,-0.432875 z M 45.834995,8.9056974 c -0.360264,-0.252339 -0.742557,-0.297599 -1.604278,-0.189934 -1.246206,0.155704 -1.52871,0.05434 -3.019054,-1.083272 -1.243926,-0.949516 -1.862103,-0.943628 -2.265387,0.02157 -0.346583,0.829491 -0.315814,0.813952 -1.055135,0.532862 -0.388835,-0.147836 -0.541374,-0.359881 -0.541374,-0.752568 0,-1.050562 0.340533,-1.363207 1.484804,-1.363207 0.576314,0 1.047845,-0.08217 1.047845,-0.182593 0,-0.784114 -3.293707,-3.246666 -5.009703,-3.745522 -1.532781,-0.445594 -2.633118,-0.237757 -3.607619,0.681425 -0.875342,0.825652 -1.168056,0.820466 -1.266784,-0.02244 -0.164144,-1.401402 1.002192,-2.21909602 3.16227,-2.21699902 0.845027,8.23e-4 1.573822,0.12969 1.973118,0.348901 0.348239,0.19118002 0.933543,0.50854402 1.300676,0.70525402 0.883059,0.473141 3.089048,2.219618 4.10956,3.253527 l 0.815862,0.826575 v -1.533371 c 0,-2.438097 0.915454,-3.81324202 2.538531,-3.81324202 1.208908,0 1.413637,1.09816402 0.314406,1.68645802 -0.56593,0.302877 -0.518379,0.635148 0.0909,0.635148 0.21245,0 0.585296,0.166206 0.828549,0.369347 0.401131,0.334984 0.42024,0.454024 0.205416,1.279521 -0.291457,1.119964 -0.003,1.594246 0.624263,1.026545 0.582831,-0.527458 1.012824,-0.434406 1.753406,0.379444 0.72553,0.797307 1.03143,0.795227 1.03143,-0.007 0,-0.701561 0.419772,-0.650184 1.061085,0.129866 0.391322,0.47598 0.770884,0.680701 1.424615,0.768385 1.058809,0.142017 1.161801,-0.136704 0.282009,-0.763175 -0.631617,-0.449753 -1.29033,-1.783479 -1.29033,-2.612592 0,-0.685537 0.580202,-1.414548 1.125805,-1.414548 1.263608,0 1.829582,1.316778 0.962625,2.239615 -0.244321,0.26007 -0.380339,0.576216 -0.302262,0.702548 0.294242,0.476094 1.81438,1.067884 2.743088,1.067884 1.022946,0 1.222238,-0.253609 0.536043,-0.682146 -0.867476,-0.54175 -0.483727,-0.762737 1.266326,-0.729229 1.979222,0.0379 2.104542,0.229455 0.89698,1.37106 -2.551706,2.412318 -5.889724,3.594752 -8.4286,2.985683 -1.016578,-0.243875 -1.219475,-0.234846 -1.748765,0.07782 -0.737213,0.435483 -0.848119,0.437209 -1.440315,0.02242 z m 25.705548,-0.181069 c -0.4094,-0.220664 -0.83111,-0.237953 -1.88188,-0.07715 -1.54148,0.235895 -3.2625,0.08032 -4.03191,-0.364467 -0.28785,-0.1664 -0.99823,-0.533485 -1.57863,-0.815743 -1.13457,-0.551762 -3.18971,-2.493329 -2.98677,-2.821702 0.16019,-0.25918 3.30335,-0.294069 3.30335,-0.03667 0,0.107759 -0.0712,0.198946 -0.15829,0.202637 -0.0871,0.0037 -0.34778,0.149905 -0.57938,0.324917 -0.3612,0.272963 -0.3762,0.346566 -0.10551,0.517693 0.50478,0.319123 1.43034,0.238005 2.29033,-0.200731 1.25895,-0.642273 1.37179,-0.886716 0.77977,-1.689153 -0.49141,-0.666067 -0.5056,-1.071626 -0.0578,-1.65039 0.28567,-0.369195 1.65356,-0.329238 2.21603,0.06473 0.9394,0.657985 0.29656,2.450668 -1.27198,3.547168 -0.68907,0.48169 -0.79957,0.64073 -0.5444,0.783529 0.47136,0.263788 1.714,-0.146452 2.28515,-0.754407 0.27279,-0.290377 0.7037,-0.527959 0.95757,-0.527959 0.37853,0 0.44342,0.09492 0.3607,0.527638 -0.14678,0.767844 0.50879,0.691806 0.96068,-0.111426 0.41354,-0.735073 1.07339,-0.979411 1.71608,-0.635453 0.69368,0.371246 0.92578,0.07308 0.77866,-1.00029 -0.15161,-1.106104 0.0915,-1.520734 0.89814,-1.531775 l 0.55456,-0.0076 -0.60884,-0.49789 c -0.83984,-0.6868 -0.65654,-1.51913802 0.37726,-1.71308302 0.98986,-0.185698 1.51173,0.159707 2.15283,1.42488702 0.49852,0.98378 0.53641,1.229783 0.41324,2.683374 l -0.13559,1.600301 0.58898,-0.658923 c 0.755,-0.844645 3.19237,-2.874043 4.26526,-3.551335 1.20174,-0.75863402 3.12407,-1.38270202 4.25915,-1.38270202 0.88576,0 1.06427,0.08745 1.76748,0.86582302 0.56913,0.629967 0.74909,0.989296 0.6606,1.319094 -0.0669,0.249299 -0.12291,0.524503 -0.12449,0.611563 -0.005,0.268898 -0.32634,0.17584 -0.75454,-0.21844 -0.94208,-0.867457 -1.47499,-1.100641 -2.51388,-1.100004 -1.60927,9.92e-4 -3.95155,1.259515 -6.08719,3.270704 l -0.67234,0.633165 1.2233,0.108834 c 1.2718,0.113148 1.61679,0.364962 1.62269,1.184418 0.007,0.969609 -1.21493,1.168372 -1.69285,0.275368 -0.30475,-0.569438 -1.48899,-0.547656 -2.01741,0.03711 -0.22114,0.244707 -0.87081,0.682621 -1.44371,0.973142 -0.89741,0.455067 -1.14278,0.497189 -1.77176,0.30415 -0.56848,-0.174474 -0.86115,-0.156295 -1.32221,0.08213 -0.72827,0.376598 -1.39796,0.37817 -2.09048,0.0049 z M 56.241644,3.1243544 c -0.196502,-0.619127 0.252611,-1.270777 1.122492,-1.628706 0.425955,-0.175268 1.036247,-0.60114002 1.356207,-0.94638302 0.7314,-0.789181 1.37464,-0.728206 1.94759,0.184617 0.25805,0.41111602 0.60308,0.68099802 0.87692,0.68592902 0.24832,0.0045 0.66352,0.17982 0.92266,0.389663 0.38382,0.3108 0.44374,0.506439 0.3232,1.055275 -0.19603,0.892523 -0.89195,0.899447 -2.11509,0.02105 -0.98163,-0.704948 -1.19054,-0.682205 -2.4072,0.262054 -0.689563,0.535183 -1.853746,0.521688 -2.026779,-0.02349 z m -28.864187,-0.02488 c -0.802718,-0.467543 -0.106047,-2.093645 0.896981,-2.093645 0.326226,0 0.422108,0.140703 0.422108,0.619425 0,0.832519 -0.349687,1.703659 -0.680703,1.695763 -0.147972,-0.0035 -0.435246,-0.103224 -0.638386,-0.221543 z m 63.419786,-0.402341 c -0.34931,-0.559329 -0.34381,-1.90236002 0.008,-1.90236002 0.56274,0 1.20777,0.66015802 1.20777,1.23608802 0,1.013378 -0.74409,1.421225 -1.21556,0.666272 z M 24.665846,2.2335394 c -0.209935,-0.392271 -0.176202,-0.517717 0.22701,-0.844221 0.65062,-0.52684002 1.059986,-0.48380202 1.059986,0.111439 0,0.44613 -0.567451,1.193514 -0.906173,1.193514 -0.07384,0 -0.245205,-0.207329 -0.380823,-0.460732 z m 68.866537,-0.0036 c -0.29264,-0.292642 -0.34486,-1.43517502 -0.0656,-1.43517502 0.10322,0 0.40021,0.172102 0.65998,0.38244802 0.34613,0.280282 0.43315,0.505803 0.32574,0.84422 -0.16237,0.511583 -0.53305,0.595582 -0.92013,0.208507 z"
       id="path854" />
  </g>
</svg>
