{
  "accessors": [
    {
      "bufferView": 1,
      "componentType": 5126,
      "count": 26602,
      "max": [
        0.54364013671875,
        0.5374205112457275,
        2.6637158393859863
      ],
      "min": [
        -0.5273525714874268,
        -0.5464234352111816,
        0.012261837720870972
      ],
      "type": "VEC3"
    },
    {
      "bufferView": 1,
      "byteOffset": 319224,
      "componentType": 5126,
      "count": 26602,
      "max": [
        1.0,
        1.0,
        1.0
      ],
      "min": [
        -1.0,
        -1.0,
        -1.0
      ],
      "type": "VEC3"
    },
    {
      "bufferView": 0,
      "componentType": 5125,
      "count": 49470,
      "type": "SCALAR"
    }
  ],
  "asset": {
    "extras": {
      "author": "swittzz (https://sketchfab.com/swittzz)",
      "license": "CC-BY-4.0 (http://creativecommons.org/licenses/by/4.0/)",
      "source": "https://sketchfab.com/3d-models/eifel-munarasy-a3b6f4bd26d64bbcae6f30de0dfc4c5d",
      "title": "Eifel Munarasy"
    },
    "generator": "Sketchfab-12.67.0",
    "version": "2.0"
  },
  "bufferViews": [
    {
      "buffer": 0,
      "byteLength": 197880,
      "name": "floatBufferViews",
      "target": 34963
    },
    {
      "buffer": 0,
      "byteLength": 638448,
      "byteOffset": 197880,
      "byteStride": 12,
      "name": "floatBufferViews",
      "target": 34962
    }
  ],
  "buffers": [
    {
      "byteLength": 836328,
      "uri": "scene.bin"
    }
  ],
  "materials": [
    {
      "doubleSided": true,
      "name": "Scene_-_Root",
      "pbrMetallicRoughness": {
        "metallicFactor": 0.0,
        "roughnessFactor": 0.6
      }
    }
  ],
  "meshes": [
    {
      "name": "Object_0",
      "primitives": [
        {
          "attributes": {
            "NORMAL": 1,
            "POSITION": 0
          },
          "indices": 2,
          "material": 0,
          "mode": 4
        }
      ]
    }
  ],
  "nodes": [
    {
      "children": [
        1
      ],
      "matrix": [
        22.167877197265625,
        0.0,
        0.0,
        0.0,
        0.0,
        4.922257534293456e-15,
        -22.167877197265625,
        0.0,
        0.0,
        22.167877197265625,
        4.922257534293456e-15,
        0.0,
        0.0,
        0.0,
        0.0,
        1.0
      ],
      "name": "Sketchfab_model"
    },
    {
      "children": [
        2
      ],
      "name": "eifel munarasy.stl.cleaner.materialmerger.gles"
    },
    {
      "mesh": 0,
      "name": "Object_2"
    }
  ],
  "scene": 0,
  "scenes": [
    {
      "name": "Sketchfab_Scene",
      "nodes": [
        0
      ]
    }
  ]
}
